<svg version="1.1" xmlns="http://www.w3.org/2000/svg" xmlns:xlink="http://www.w3.org/1999/xlink" width="331.06823" height="211.08108" viewBox="0,0,331.06823,211.08108"><g transform="translate(-14.46588,-139.45946)"><g data-paper-data="{&quot;isPaintingLayer&quot;:true}" fill-rule="nonzero" stroke-linejoin="miter" stroke-miterlimit="10" stroke-dasharray="" stroke-dashoffset="0" style="mix-blend-mode: normal"><path d="M14.46588,331.44064c0,-44.35921 0,-152.33724 0,-175.45663c0,-8.53033 7.80399,-16.52455 16.99655,-16.52455c33.18123,0 232.08657,0 295.00471,0c12.01156,0 19.06697,6.94993 19.06697,18.24337c0,43.33515 0,150.62449 0,174.60767c0,9.29543 -6.9874,18.23004 -18.62493,18.23004c-61.97254,0 -260.48284,0 -294.45748,0c-9.67227,0 -17.98582,-7.29856 -17.98582,-19.0999z" fill-opacity="0.67059" fill="#ffffff" stroke="none" stroke-width="0" stroke-linecap="butt"/><g fill="none" stroke="#848484" stroke-width="3.5"><path d="M32.98572,206.8308c0,-12.58742 0,-33.25563 0,-40.1837c0,-4.47489 5.25369,-9.6524 10.31682,-9.6524c7.79009,0 47.07615,0 67.66864,0c7.58832,0 12.6382,5.38823 12.6382,12.60965c0,12.75732 0,31.23569 0,35.8348c0,5.16269 -4.34975,11.52048 -11.07259,11.52048c-20.00797,0 -61.03484,0 -70.9738,0c-4.24506,0 -8.57727,-4.15413 -8.57727,-10.12883z" stroke-linecap="butt"/><path d="M41.03292,166.76295l34.78367,22.09234l39.48418,-23.50249" stroke-linecap="round"/></g><text transform="translate(33.42252,257.71366) scale(0.57919,0.57919)" font-size="40" xml:space="preserve" fill="#000000" fill-rule="nonzero" stroke="none" stroke-width="1" stroke-linecap="butt" stroke-linejoin="miter" stroke-miterlimit="10" stroke-dasharray="" stroke-dashoffset="0" font-family="Sans Serif" font-weight="normal" text-anchor="start" style="mix-blend-mode: normal"><tspan x="0" dy="0">请确认来自“未知设备”的邮件</tspan></text><text transform="translate(139.5369,170.53456) scale(0.40977,0.40977)" font-size="40" xml:space="preserve" fill="#000000" fill-rule="nonzero" stroke="none" stroke-width="1" stroke-linecap="butt" stroke-linejoin="miter" stroke-miterlimit="10" stroke-dasharray="" stroke-dashoffset="0" font-family="Sans Serif" font-weight="normal" text-anchor="start" style="mix-blend-mode: normal"><tspan x="0" dy="0">App 邮箱</tspan></text><path d="M197.21633,307.467c0,-4.16695 6.47308,-12.20768 12.92554,-12.20768c14.77313,0 74.60835,0 101.5702,0c8.14207,0 13.28626,8.14839 13.28626,12.33908c0,4.35201 -5.19957,13.30731 -13.41766,13.30731c-27.02435,0 -86.68963,0 -101.43881,0c-6.45246,0 -12.92554,-9.06671 -12.92554,-13.43871z" fill="#00c1ff" stroke="none" stroke-width="0" stroke-linecap="butt"/><text transform="translate(246.87748,312.86144) scale(0.40307,0.40307)" font-size="40" xml:space="preserve" fill="#000000" fill-rule="nonzero" stroke="none" stroke-width="1" stroke-linecap="butt" stroke-linejoin="miter" stroke-miterlimit="10" stroke-dasharray="" stroke-dashoffset="0" font-family="Sans Serif" font-weight="normal" text-anchor="start" style="mix-blend-mode: normal"><tspan x="0" dy="0">确认</tspan></text></g></g></svg>